<svg width="21" height="20" viewBox="0 0 21 20" fill="none" xmlns="http://www.w3.org/2000/svg">
<g clip-path="url(#clip0)">
<path d="M10.6992 20C16.2221 20 20.6992 15.5228 20.6992 10C20.6992 4.47715 16.2221 0 10.6992 0C5.17637 0 0.699219 4.47715 0.699219 10C0.699219 15.5228 5.17637 20 10.6992 20Z" fill="#0052B4"/>
<path d="M10.6997 3.91307L11.0235 4.90951H12.0712L11.2235 5.52533L11.5473 6.52177L10.6997 5.90592L9.85208 6.52177L10.1758 5.52533L9.32825 4.90951H10.3759L10.6997 3.91307Z" fill="#FFDA44"/>
<path d="M6.39524 5.69588L7.32884 6.17151L8.06966 5.43073L7.90571 6.4655L8.83927 6.94116L7.80446 7.10507L7.64056 8.13991L7.16489 7.20636L6.13013 7.3703L6.87094 6.62948L6.39524 5.69588Z" fill="#FFDA44"/>
<path d="M4.61279 10L5.60923 9.67625V8.6285L6.22502 9.47617L7.2215 9.15242L6.6056 10L7.2215 10.8476L6.22502 10.5238L5.60923 11.3715V10.3238L4.61279 10Z" fill="#FFDA44"/>
<path d="M6.39524 14.3042L6.87091 13.3706L6.13013 12.6297L7.16494 12.7937L7.64052 11.8602L7.80446 12.895L8.83923 13.0589L7.90579 13.5346L8.06966 14.5693L7.32884 13.8285L6.39524 14.3042Z" fill="#FFDA44"/>
<path d="M10.6997 16.087L10.3758 15.0905H9.32825L10.1758 14.4748L9.85208 13.4783L10.6997 14.0941L11.5473 13.4783L11.2235 14.4748L12.0712 15.0905H11.0234L10.6997 16.087Z" fill="#FFDA44"/>
<path d="M15.0037 14.3042L14.0701 13.8285L13.3293 14.5693L13.4932 13.5345L12.5598 13.0589L13.5946 12.895L13.7585 11.8602L14.2341 12.7937L15.2688 12.6297L14.5281 13.3707L15.0037 14.3042Z" fill="#FFDA44"/>
<path d="M16.7865 10L15.7901 10.3238V11.3715L15.1743 10.5238L14.1779 10.8476L14.7937 10L14.1779 9.15242L15.1743 9.47617L15.7901 8.6285V9.67625L16.7865 10Z" fill="#FFDA44"/>
<path d="M15.0037 5.69588L14.5281 6.62947L15.2689 7.37028L14.2341 7.2063L13.7585 8.13986L13.5946 7.10505L12.5598 6.94111L13.4932 6.46548L13.3293 5.43076L14.0702 6.17153L15.0037 5.69588Z" fill="#FFDA44"/>
</g>
<defs>
<clipPath id="clip0">
<rect width="20" height="20" fill="white" transform="translate(0.699219)"/>
</clipPath>
</defs>
</svg>
