<svg width="21" height="21" viewBox="0 0 21 21" fill="none" xmlns="http://www.w3.org/2000/svg">
<g clip-path="url(#clip0)">
<path d="M10.3818 20.9414C15.9047 20.9414 20.3818 16.4643 20.3818 10.9414C20.3818 5.41856 15.9047 0.941406 10.3818 0.941406C4.85899 0.941406 0.381836 5.41856 0.381836 10.9414C0.381836 16.4643 4.85899 20.9414 10.3818 20.9414Z" fill="#F6F5FA"/>
<path d="M9.948 10.9415H20.3828C20.3828 10.0389 20.2624 9.16452 20.0383 8.33276H9.948V10.9415Z" fill="#E12F4F"/>
<path d="M9.948 5.72405H18.915C18.3029 4.72515 17.5202 3.84222 16.6076 3.11534H9.948V5.72405Z" fill="#E12F4F"/>
<path d="M10.3827 20.9415C12.7362 20.9415 14.8993 20.1281 16.6075 18.7676H4.15784C5.86604 20.1281 8.0292 20.9415 10.3827 20.9415Z" fill="#E12F4F"/>
<path d="M1.85029 16.1589H18.9148C19.4063 15.357 19.7874 14.4804 20.0381 13.5502H0.727051C0.977715 14.4804 1.35885 15.357 1.85029 16.1589Z" fill="#E12F4F"/>
<path d="M5.01402 2.50305H5.92531L5.07766 3.11887L5.40145 4.11531L4.55383 3.49949L3.70621 4.11531L3.9859 3.25449C3.23957 3.87617 2.58543 4.60453 2.04637 5.41609H2.33836L1.79879 5.80809C1.71473 5.94832 1.6341 6.09078 1.55684 6.23535L1.81449 7.02836L1.33379 6.6791C1.2143 6.93227 1.105 7.19113 1.00676 7.45539L1.29062 8.32914H2.33836L1.4907 8.94496L1.81449 9.94141L0.966875 9.32559L0.459141 9.69449C0.40832 10.103 0.381836 10.5191 0.381836 10.9414H10.3818C10.3818 5.41859 10.3818 4.7675 10.3818 0.941406C8.40637 0.941406 6.56484 1.51445 5.01402 2.50305ZM5.40145 9.94141L4.55383 9.32559L3.70621 9.94141L4.03 8.94496L3.18234 8.32914H4.23008L4.55383 7.3327L4.87758 8.32914H5.92531L5.07766 8.94496L5.40145 9.94141ZM5.07766 6.03191L5.40145 7.02836L4.55383 6.41254L3.70621 7.02836L4.03 6.03191L3.18234 5.41609H4.23008L4.55383 4.41965L4.87758 5.41609H5.92531L5.07766 6.03191ZM8.9884 9.94141L8.14078 9.32559L7.29316 9.94141L7.61695 8.94496L6.7693 8.32914H7.81703L8.14078 7.3327L8.46453 8.32914H9.51227L8.66461 8.94496L8.9884 9.94141ZM8.66461 6.03191L8.9884 7.02836L8.14078 6.41254L7.29316 7.02836L7.61695 6.03191L6.7693 5.41609H7.81703L8.14078 4.41965L8.46453 5.41609H9.51227L8.66461 6.03191ZM8.66461 3.11887L8.9884 4.11531L8.14078 3.49949L7.29316 4.11531L7.61695 3.11887L6.7693 2.50305H7.81703L8.14078 1.5066L8.46453 2.50305H9.51227L8.66461 3.11887Z" fill="#0052B4"/>
</g>
<defs>
<clipPath id="clip0">
<path d="M0.381836 0.941406H16.3818C18.591 0.941406 20.3818 2.73227 20.3818 4.94141V16.9414C20.3818 19.1505 18.591 20.9414 16.3818 20.9414H0.381836V0.941406Z" fill="white"/>
</clipPath>
</defs>
</svg>
