<?xml version="1.0" standalone="no"?>
<!DOCTYPE svg PUBLIC "-//W3C//DTD SVG 20010904//EN"
 "http://www.w3.org/TR/2001/REC-SVG-20010904/DTD/svg10.dtd">
<svg version="1.0" xmlns="http://www.w3.org/2000/svg"
 width="928.000000pt" height="928.000000pt" viewBox="0 0 928.000000 928.000000"
 preserveAspectRatio="xMidYMid meet">
<metadata>
Created by potrace 1.14, written by Peter Selinger 2001-2017
</metadata>
<g transform="translate(0.000000,928.000000) scale(0.100000,-0.100000)"
fill="#000000" stroke="none">
<path d="M1709 9276 c-2 -2 -20 -6 -39 -9 -19 -3 -52 -11 -72 -17 -21 -6 -41
-10 -44 -10 -4 1 -10 -2 -13 -7 -3 -4 -31 -21 -62 -36 -65 -32 -142 -95 -185
-150 -16 -21 -35 -44 -42 -52 -35 -39 -110 -225 -116 -285 -1 -14 -5 -30 -9
-36 -10 -16 -3 -8061 7 -8104 34 -149 106 -286 198 -378 61 -61 165 -130 211
-139 15 -3 27 -9 27 -13 0 -4 19 -11 43 -15 23 -5 51 -10 62 -12 50 -10 215
-11 260 -2 28 5 57 11 65 12 8 1 21 6 27 10 7 5 13 6 13 3 0 -2 15 0 33 5 17
5 47 12 66 15 19 3 45 10 59 15 14 5 27 7 30 5 2 -3 12 -1 21 3 9 5 30 11 46
14 47 9 75 16 109 26 17 6 45 12 61 15 17 3 50 10 75 16 25 7 54 14 65 16 11
2 30 6 43 8 13 3 31 7 40 10 9 3 28 8 42 10 14 3 72 17 130 31 121 29 149 35
215 49 19 4 90 21 125 30 8 3 38 10 65 16 28 6 59 14 70 16 11 3 31 7 45 10
14 3 43 10 65 15 22 6 49 12 60 14 11 2 79 18 150 35 72 17 141 33 155 36 14
3 50 11 80 19 30 8 66 15 80 17 14 2 31 7 38 11 6 5 12 6 12 3 0 -2 15 0 33 5
17 6 41 12 52 14 11 3 34 8 50 12 17 4 32 7 35 8 3 1 19 4 35 8 17 4 39 9 50
11 11 3 40 9 65 16 25 6 54 13 65 15 11 2 49 11 85 20 36 9 76 18 90 21 33 7
179 41 275 64 44 11 91 21 105 24 14 2 25 5 25 6 0 2 10 4 55 13 14 3 142 33
285 67 143 33 283 65 310 71 28 6 57 13 65 16 8 3 22 7 30 9 53 10 69 14 105
23 22 5 51 12 65 15 27 5 26 5 155 36 49 12 99 23 110 24 12 1 25 5 30 8 6 3
28 9 50 13 22 5 45 10 50 11 6 2 23 6 38 9 16 3 86 19 155 36 70 17 138 33
152 35 14 3 32 7 40 10 16 6 84 21 135 30 17 3 44 9 61 15 29 9 41 12 99 24
11 3 79 18 150 35 72 17 137 32 145 34 9 2 51 16 95 31 328 110 614 360 708
619 l22 61 0 2670 c0 1469 -4 2683 -8 2699 -5 16 -12 37 -18 48 -5 10 -8 18
-5 18 7 0 -48 103 -84 155 -55 80 -111 141 -188 202 -26 21 -49 40 -52 43 -7
7 -88 61 -125 82 -50 29 -180 91 -220 104 -41 14 -266 76 -290 80 -16 3 -75
16 -130 29 -165 40 -279 66 -300 69 -11 2 -40 9 -65 16 -45 12 -65 17 -109 26
-13 3 -51 12 -85 20 -34 8 -72 17 -86 20 -14 3 -70 16 -125 29 -55 13 -122 29
-150 35 -27 7 -57 13 -65 15 -8 2 -67 15 -130 30 -63 14 -122 28 -130 32 -8 3
-19 5 -24 4 -4 -1 -23 3 -41 9 -18 6 -43 13 -56 16 -13 2 -44 9 -69 14 -25 6
-56 13 -70 16 -14 3 -52 12 -85 21 -60 15 -77 19 -125 28 -14 3 -40 9 -59 14
-18 6 -36 10 -40 9 -3 -1 -13 1 -21 5 -15 5 -137 35 -176 42 -10 2 -19 4 -19
5 0 1 -9 3 -20 4 -25 4 -600 138 -645 151 -19 5 -128 28 -140 30 -9 0 -20 4
-25 7 -6 3 -26 9 -45 13 -19 4 -80 17 -135 30 -55 13 -111 26 -125 29 -14 3
-54 12 -90 21 -36 8 -74 17 -85 19 -11 3 -47 11 -81 20 -34 8 -72 17 -85 20
-29 6 -197 45 -221 51 -41 11 -65 16 -97 21 -19 2 -38 7 -43 10 -4 3 -21 8
-36 10 -15 3 -74 17 -132 31 -58 14 -114 27 -125 29 -11 2 -57 12 -102 23 -45
11 -92 23 -105 26 -13 2 -43 9 -68 15 -25 6 -54 12 -65 14 -11 2 -40 9 -65 16
-25 7 -56 14 -70 16 -14 3 -33 7 -42 10 -9 3 -26 7 -37 9 -12 3 -29 7 -38 9
-55 13 -167 39 -182 41 -9 2 -16 4 -16 5 0 2 -35 10 -70 16 -40 7 -241 15
-246 10z m1686 -1999 c11 -3 43 -8 70 -11 82 -10 139 -18 160 -22 11 -2 38 -6
60 -9 63 -8 101 -14 210 -30 22 -4 57 -8 77 -11 21 -2 50 -6 65 -9 16 -3 44
-8 63 -10 19 -3 49 -7 65 -10 17 -2 55 -7 85 -10 30 -4 57 -8 60 -10 3 -2 34
-6 70 -10 35 -3 67 -8 70 -10 3 -2 34 -6 70 -10 35 -3 67 -8 70 -10 3 -2 35
-6 70 -10 36 -3 72 -8 80 -10 8 -3 33 -7 55 -10 63 -7 224 -30 275 -39 14 -2
43 -7 65 -10 22 -3 56 -8 75 -10 203 -30 251 -36 290 -41 232 -29 368 -70 520
-156 100 -56 246 -197 285 -274 9 -16 20 -37 25 -45 5 -8 16 -31 24 -50 81
-190 39 -397 -109 -545 -34 -34 -102 -85 -114 -85 -6 0 -11 -4 -11 -8 0 -11
-104 -55 -185 -78 -105 -30 -226 -35 -470 -20 -66 4 -149 9 -185 11 -36 2
-101 7 -145 10 -93 7 -205 14 -325 20 -47 3 -116 7 -155 9 -150 11 -253 17
-330 22 -44 3 -107 6 -140 9 -33 2 -107 6 -165 10 -58 3 -130 8 -160 10 -49 4
-140 9 -325 21 -243 15 -288 19 -317 35 -13 7 -24 12 -26 11 -17 -13 -252 100
-252 121 0 4 -5 7 -11 7 -18 0 -128 111 -174 175 -73 103 -133 244 -138 322
-1 18 -4 33 -7 33 -7 0 -4 178 4 227 20 123 82 240 175 334 56 56 159 128 196
136 5 1 29 9 52 17 23 9 57 18 75 21 18 3 34 7 36 9 4 5 224 -1 247 -7z m145
-1902 c80 -3 199 -8 265 -11 66 -3 170 -7 230 -9 124 -4 360 -13 510 -20 329
-14 400 -17 490 -20 55 -2 154 -6 220 -9 66 -3 190 -8 275 -12 85 -3 171 -7
190 -8 19 -1 41 -5 48 -10 6 -4 12 -3 12 2 0 5 28 2 63 -6 34 -7 77 -16 95
-19 18 -3 35 -9 38 -14 3 -5 12 -9 21 -9 26 0 174 -79 232 -123 47 -36 96 -83
136 -130 13 -15 40 -57 63 -99 63 -112 75 -272 31 -406 -70 -212 -327 -412
-588 -457 -19 -3 -38 -8 -42 -10 -8 -6 -122 -13 -304 -20 -71 -3 -184 -7 -250
-10 -66 -3 -183 -7 -260 -10 -77 -3 -180 -8 -230 -10 -49 -3 -153 -7 -230 -10
-166 -6 -395 -15 -520 -20 -49 -2 -162 -7 -250 -10 -88 -4 -196 -8 -240 -10
-125 -6 -317 -6 -350 0 -64 11 -190 53 -235 77 -203 111 -348 308 -387 528 -8
45 -8 192 -1 250 35 258 246 505 500 584 74 24 203 42 268 39 30 -1 120 -5
200 -8z m88 -1889 c41 -3 77 -8 80 -10 4 -2 24 -7 46 -10 21 -3 66 -17 100
-31 35 -14 68 -25 74 -25 7 0 12 -4 12 -10 0 -5 5 -10 10 -10 16 0 116 -66
151 -99 17 -17 34 -31 38 -33 4 -2 30 -32 58 -68 70 -90 98 -149 142 -300 12
-39 5 -240 -9 -290 -7 -25 -14 -51 -16 -57 -6 -32 -58 -153 -66 -153 -4 0 -8
-8 -8 -19 0 -10 -7 -24 -16 -32 -8 -7 -22 -25 -30 -41 -29 -55 -125 -157 -214
-227 -36 -28 -70 -55 -77 -61 -7 -5 -17 -10 -22 -10 -5 0 -16 -6 -23 -13 -28
-28 -213 -105 -289 -121 -13 -3 -35 -8 -49 -11 -68 -16 -226 -21 -290 -10 -92
15 -142 31 -222 68 -49 22 -88 43 -88 48 0 4 -8 10 -17 13 -27 9 -114 94 -159
156 -38 52 -78 129 -102 195 -41 113 -48 298 -18 444 17 80 98 265 131 298 8
8 15 18 15 23 0 23 220 244 220 222 0 -4 4 -2 8 3 11 15 80 57 142 88 53 25
180 69 180 61 0 -2 12 1 28 7 15 6 61 13 102 16 41 3 77 7 78 8 2 2 9 2 15 0
7 -2 45 -6 85 -9z"/>
</g>
</svg>
